<?xml version="1.0" encoding="UTF-8" standalone="no"?>
<!DOCTYPE svg PUBLIC "-//W3C//DTD SVG 1.1//EN" "http://www.w3.org/Graphics/SVG/1.1/DTD/svg11.dtd">
<svg width="100%" height="100%" viewBox="0 0 800 800" version="1.1" xmlns="http://www.w3.org/2000/svg" xmlns:xlink="http://www.w3.org/1999/xlink" xml:space="preserve" xmlns:serif="http://www.serif.com/" style="fill-rule:evenodd;clip-rule:evenodd;stroke-linejoin:round;stroke-miterlimit:2;">
    <path id="RedRect" fill="#ffffff" d="M785.014,60.764C782.656,36.723 763.658,17.688 739.621,15.283C535.911,-5.094 263.948,-5.095 60.088,15.283C36.014,17.689 16.997,36.778 14.682,60.862C-4.894,264.521 -4.894,536.067 14.682,739.726C17.005,763.883 36.126,783.004 60.284,785.324C264.025,804.892 535.681,804.892 739.422,785.324C763.543,783.007 782.649,763.94 785.014,739.824C804.995,536.106 804.995,264.482 785.014,60.764ZM483.192,233.269L163.195,549.059C149.035,563.033 120.296,628.828 235.681,660.849C310.672,681.661 362.664,687.004 400.454,646.876C467.778,575.386 639.623,231.912 639.623,231.912C639.73,231.725 639.834,231.536 639.935,231.345C651.25,209.904 655.46,189.703 650.15,171.703C644.955,154.09 634.88,138.528 606.915,125.654C604.398,124.494 597.376,123.311 594.636,123.3C525.922,123.006 190.381,123.3 190.381,123.3C183.788,123.3 176.033,125.666 170.934,129.846C139.78,155.379 139.792,196.512 170.934,227.662C175.613,232.342 183.788,233.269 190.406,233.269L483.192,233.269Z"/>
</svg>
